<svg width="26" height="32" viewBox="0 0 26 32" fill="none" xmlns="http://www.w3.org/2000/svg">
<path d="M19.3638 0.016014C19.2958 -0.059986 16.8458 0.0460141 14.7139 2.36001C12.5819 4.67201 12.9099 7.32401 12.9578 7.39201C13.0058 7.46001 15.9979 7.56601 17.9079 4.87601C19.8179 2.18601 19.4318 0.094014 19.3638 0.016014ZM25.9918 23.482C25.8958 23.29 21.3419 21.014 21.7659 16.638C22.1898 12.26 25.1158 11.06 25.1618 10.93C25.2078 10.8 23.9678 9.35001 22.6538 8.61601C21.6891 8.09852 20.6213 7.80203 19.5278 7.74801C19.3118 7.74201 18.5618 7.55801 17.0198 7.98001C16.0038 8.25801 13.7138 9.15801 13.0838 9.19401C12.4518 9.23001 10.5718 8.15001 8.54985 7.86401C7.25585 7.61401 5.88385 8.12601 4.90185 8.52001C3.92185 8.91201 2.05785 10.028 0.753852 12.994C-0.550148 15.958 0.131852 20.654 0.619852 22.114C1.10785 23.572 1.86985 25.962 3.16585 27.706C4.31785 29.674 5.84585 31.04 6.48385 31.504C7.12185 31.968 8.92185 32.276 10.1699 31.638C11.1739 31.022 12.9858 30.668 13.7018 30.694C14.4158 30.72 15.8238 31.002 17.2659 31.772C18.4079 32.166 19.4878 32.002 20.5698 31.562C21.6518 31.12 23.2178 29.444 25.0458 26.046C25.7398 24.466 26.0558 23.612 25.9918 23.482Z" fill="black"/>
</svg>
